<svg width="114" height="42" viewBox="0 0 114 42" fill="none" xmlns="http://www.w3.org/2000/svg">
<path d="M28.9037 3.78874C27.8958 1.51452 25.9543 2.26722 25.1095 2.92784C24.2331 3.77574 24.2384 4.15751 24.3505 4.2424C26.5608 2.424 28.2159 4.17738 28.7672 5.28137L28.9037 3.78874Z" fill="white" stroke="#FF3A1E" stroke-width="0.5"/>
<path d="M28.9037 3.78902C27.2047 7.40159 23.7483 7.76319 22.2325 7.49241L23.8998 12.1419C26.1874 12.7857 28.2938 9.52121 29.061 7.80848C29.6697 6.41923 29.2097 4.54998 28.9037 3.78902Z" fill="white" stroke="#FF3A1E" stroke-width="0.5"/>
<path d="M26.4587 10.535C24.3865 8.17818 24.696 4.48065 25.1097 2.92649C23.3963 3.96803 22.5084 5.37335 22.2786 5.94582L20.6681 8.9446L26.4587 10.535Z" fill="white" stroke="#FF3A1E" stroke-width="0.5"/>
<path d="M11.3522 40.278C11.8852 39.6858 17.4014 14.4853 17.4631 11.9068C17.6407 11.8476 18.7215 10.4017 19.2397 9.68613L20.202 9.53808L20.6461 10.4264C20.4684 10.604 17.5248 33.5481 17.4631 36.7187C17.2558 36.8668 12.4749 40.2657 11.3522 40.278Z" fill="white"/>
<path d="M11.3522 40.278C11.8852 39.6858 17.4014 14.4853 17.4631 11.9068C17.6407 11.8476 18.7215 10.4017 19.2397 9.68613L20.202 9.53808L20.6461 10.4264C20.4684 10.604 17.5248 33.5481 17.4631 36.7187C17.2558 36.8668 12.4749 40.2657 11.3522 40.278Z" fill="white"/>
<path d="M17.4631 11.9068C17.4014 14.4853 11.8852 39.6858 11.3522 40.278C12.4749 40.2657 17.2558 36.8668 17.4631 36.7187C17.5248 33.5481 20.4684 10.604 20.6461 10.4264L20.202 9.53808L19.2397 9.68613C18.7215 10.4017 17.6407 11.8476 17.4631 11.9068Z" stroke="#FF3A1E" stroke-width="0.5"/>
<path d="M32.3415 26.4532C29.7872 18.0365 22.379 14.8506 18.9941 14.3097L20.0933 12.1113C29.3475 14.6656 33.6151 20.7827 34.5922 23.522C37.649 32.1062 42.2168 33.8335 44.1185 33.6241L40.821 36.0842C35.9217 34.6186 33.1266 29.0529 32.3415 26.4532Z" fill="white" stroke="#FF3A1E" stroke-width="0.5"/>
<path d="M32.7256 11.6156C33.3211 12.0078 33.2338 12.6545 33.1158 12.9288C32.8911 13.2342 32.2373 13.3685 31.9386 13.3975C32.2807 12.3862 31.8618 11.681 31.6096 11.4548C31.798 11.1284 32.4321 11.426 32.7256 11.6156Z" fill="white" stroke="#FF3A1E" stroke-width="0.5"/>
<path d="M25.0898 14.5816C27.5691 17.657 25.212 21.1394 23.7236 22.4962C23.3191 22.3593 22.8058 20.5963 22.5997 19.7319C23.0308 19.739 23.6399 18.9423 23.8905 18.5431C24.2143 18.1498 24.1943 17.3888 24.1438 17.0575C24.1356 16.5692 23.7918 16.411 23.6209 16.3929C23.1326 16.4011 22.4164 16.6646 22.1194 16.7953C21.8196 16.4771 21.9266 14.4074 22.0176 13.4123C22.8057 13.7222 24.3941 14.321 25.0898 14.5816Z" fill="white" stroke="#FF3A1E" stroke-width="0.5"/>
<path d="M19.8756 20.5762C19.043 19.7571 18.5618 15.7682 18.4252 13.8761L18.75 12.3714C19.4962 12.7538 21.4078 13.2813 22.2703 13.4972C21.7334 17.4422 23.0154 21.1399 23.7235 22.4956C23.0637 22.5498 20.8833 21.2386 19.8756 20.5762Z" fill="white" stroke="#FF3A1E" stroke-width="0.5"/>
<path d="M22.3217 0.531748C23.0128 0.870263 24.1598 2.41492 23.2198 5.88545C22.9713 6.71858 22.7176 8.37885 23.1862 9.6729L23.8216 10.7054C23.5319 10.4156 23.3266 10.0607 23.1862 9.6729L19.2065 3.20571C19.4061 2.61579 20.3085 1.25512 22.3217 0.531748Z" fill="white"/>
<path d="M22.3217 0.531748C23.0128 0.870263 24.1598 2.41492 23.2198 5.88545C22.8969 6.96823 22.5651 9.44813 23.8216 10.7054L19.2065 3.20571C19.4061 2.61579 20.3085 1.25512 22.3217 0.531748Z" stroke="#FF3A1E" stroke-width="0.5"/>
<path d="M18.2611 4.11088C18.6499 5.44744 18.2913 6.08252 18.0634 6.233L21.4084 10.2796L23.8899 9.95958C23.0507 8.31458 22.8539 6.90356 22.8605 6.40368C22.9287 5.65736 22.8456 4.71199 22.6292 4.39651C21.8745 3.29594 22.0582 1.40749 22.3218 0.532194C20.5516 0.332138 18.9765 0.917661 18.4103 1.23543C17.7683 1.92855 18.0434 3.4412 18.2611 4.11088Z" fill="white" stroke="#FF3A1E" stroke-width="0.5"/>
<path d="M12.0718 3.31729C10.3538 5.37161 10.2649 6.20267 10.4351 6.36141C11.6005 4.76168 15.3063 7.38076 17.0136 8.89027C18.4324 8.69403 21.077 9.56409 22.2219 10.0237C21.8735 8.95216 20.5916 7.75273 19.9942 7.28695C18.9176 6.47191 18.4602 5.75657 18.3661 5.50079C16.0262 2.60257 13.1949 2.83753 12.0718 3.31729Z" fill="white" stroke="#FF3A1E" stroke-width="0.5"/>
<path d="M29.6313 15.5093C14.1267 12.2148 10.3911 8.00717 10.4614 6.31515C11.4454 4.61074 14.2589 5.94901 15.5426 6.83119C15.7811 6.92055 17.3692 7.78504 18.1334 8.20612C19.2827 9.06304 20.7987 9.38229 21.4131 9.4348C21.9529 9.50472 22.6621 9.8537 22.9492 10.0195C28.6497 12.8755 32.1024 13.1484 33.1162 12.9279C31.5112 15.2891 30.1242 15.6327 29.6313 15.5093Z" fill="white" stroke="#FF3A1E" stroke-width="0.5"/>
<path d="M29.7408 9.77121C31.2389 10.4427 32.4153 11.3153 32.8163 11.6677C32.1635 11.2908 29.8238 12.0352 28.7356 12.4546C27.6921 12.3357 25.9841 11.6719 25.2606 11.3549C24.9551 11.1302 24.1744 10.8285 23.8222 10.7057C22.9406 10.3902 21.68 9.67039 21.1598 9.34995C23.8902 8.55705 28.0181 9.30042 29.7408 9.77121Z" fill="white" stroke="#FF3A1E" stroke-width="0.5"/>
<path d="M61.488 13.7C65.472 13.7 66.936 15.932 66.936 17.972C66.936 19.916 65.4 22.124 61.392 22.124C65.976 23.156 65.928 28.46 68.328 30.5H64.224C61.992 28.196 62.304 22.124 59.4 22.124H58.656V30.5H54.96V13.7H61.488ZM58.656 22.004H60.024C61.656 22.004 63.096 20.06 63.096 17.972C63.096 15.5 61.368 13.82 60.024 13.82H58.656V22.004ZM74.0798 18.26C77.3918 18.26 78.8798 21.332 78.8798 24.044H72.1118C72.5198 27.188 73.9358 29.444 76.1678 29.444C76.5278 29.444 77.5838 29.276 78.6398 27.98L78.7598 28.004C77.8478 29.732 76.2158 30.74 74.1278 30.74C70.8878 30.74 68.7278 28.244 68.7278 24.5C68.7278 20.708 70.9598 18.236 74.0798 18.26ZM72.0638 20.252C71.9438 21.548 71.9438 22.796 72.0878 23.924H75.3278C75.2318 22.58 74.9198 18.404 73.5518 18.404C72.6398 18.404 72.1838 19.076 72.0638 20.252ZM83.1808 29.396C82.2208 29.396 81.4288 28.58 81.4288 27.668C81.4288 26.732 82.2208 25.964 83.1808 25.964C84.0928 25.964 84.8848 26.732 84.8848 27.668C84.8848 28.58 84.0928 29.396 83.1808 29.396ZM81.4288 21.26C81.4288 20.324 82.2208 19.556 83.1808 19.556C84.0928 19.556 84.8848 20.324 84.8848 21.26C84.8848 22.172 84.0928 22.988 83.1808 22.988C82.2208 22.988 81.4288 22.172 81.4288 21.26ZM94.3239 13.7C98.3079 13.7 99.7719 15.932 99.7719 17.972C99.7719 19.916 98.2359 22.124 94.2279 22.124C98.8119 23.156 98.7639 28.46 101.164 30.5H97.0599C94.8279 28.196 95.1399 22.124 92.2359 22.124H91.4919V30.5H87.7959V13.7H94.3239ZM91.4919 22.004H92.8599C94.4919 22.004 95.9319 20.06 95.9319 17.972C95.9319 15.5 94.2039 13.82 92.8599 13.82H91.4919V22.004ZM106.551 30.5H102.999V18.5H106.551V30.5ZM102.783 15.428C102.783 14.372 103.695 13.46 104.799 13.46C105.855 13.46 106.767 14.372 106.767 15.428C106.767 16.508 105.855 17.42 104.799 17.42C103.695 17.42 102.783 16.508 102.783 15.428Z" fill="white"/>
</svg>
