<svg width="114" height="44" viewBox="0 0 114 44" fill="none" xmlns="http://www.w3.org/2000/svg">
<path d="M28.9037 4.78776C27.8958 2.51355 25.9543 3.26624 25.1095 3.92686C24.2331 4.77476 24.2384 5.15653 24.3505 5.24143C26.5608 3.42302 28.2159 5.1764 28.7672 6.28039L28.9037 4.78776Z" fill="#FF3A1E" stroke="white" stroke-width="0.5"/>
<path d="M28.9037 4.78804C27.2047 8.40061 23.7483 8.76221 22.2325 8.49144L23.8998 13.1409C26.1874 13.7847 28.2938 10.5202 29.061 8.80751C29.6697 7.41826 29.2097 5.54901 28.9037 4.78804Z" fill="#FF3A1E" stroke="white" stroke-width="0.5"/>
<path d="M26.4587 11.536C24.3865 9.17916 24.696 5.48163 25.1097 3.92747C23.3963 4.969 22.5084 6.37432 22.2786 6.94679L20.6681 9.94558L26.4587 11.536Z" fill="#FF3A1E" stroke="white" stroke-width="0.5"/>
<path d="M11.3522 41.277C11.8852 40.6849 17.4014 15.4843 17.4631 12.9059C17.6407 12.8466 18.7215 11.4007 19.2397 10.6852L20.202 10.5371L20.6461 11.4254C20.4684 11.603 17.5248 34.5471 17.4631 37.7178C17.2558 37.8658 12.4749 41.2647 11.3522 41.277Z" fill="#FF3A1E"/>
<path d="M11.3522 41.277C11.8852 40.6849 17.4014 15.4843 17.4631 12.9059C17.6407 12.8466 18.7215 11.4007 19.2397 10.6852L20.202 10.5371L20.6461 11.4254C20.4684 11.603 17.5248 34.5471 17.4631 37.7178C17.2558 37.8658 12.4749 41.2647 11.3522 41.277Z" fill="#FF3A1E"/>
<path d="M17.4631 12.9059C17.4014 15.4843 11.8852 40.6849 11.3522 41.277C12.4749 41.2647 17.2558 37.8658 17.4631 37.7178C17.5248 34.5471 20.4684 11.603 20.6461 11.4254L20.202 10.5371L19.2397 10.6852C18.7215 11.4007 17.6407 12.8466 17.4631 12.9059Z" stroke="white" stroke-width="0.5"/>
<path d="M32.3415 27.4532C29.7872 19.0365 22.379 15.8506 18.9941 15.3097L20.0933 13.1113C29.3475 15.6656 33.6151 21.7827 34.5922 24.522C37.649 33.1062 42.2168 34.8335 44.1185 34.6241L40.821 37.0842C35.9217 35.6186 33.1266 30.0529 32.3415 27.4532Z" fill="#FF3A1E" stroke="white" stroke-width="0.5"/>
<path d="M32.7256 12.6156C33.3211 13.0078 33.2338 13.6545 33.1158 13.9288C32.8911 14.2342 32.2373 14.3685 31.9386 14.3975C32.2807 13.3862 31.8618 12.681 31.6096 12.4548C31.798 12.1284 32.4321 12.426 32.7256 12.6156Z" fill="#FF3A1E" stroke="white" stroke-width="0.5"/>
<path d="M25.0898 15.5806C27.5691 18.6561 25.212 22.1384 23.7236 23.4952C23.3191 23.3584 22.8058 21.5954 22.5997 20.731C23.0308 20.7381 23.6399 19.9414 23.8905 19.5421C24.2143 19.1488 24.1943 18.3878 24.1438 18.0565C24.1356 17.5682 23.7918 17.41 23.6209 17.3919C23.1326 17.4002 22.4164 17.6636 22.1194 17.7943C21.8196 17.4761 21.9266 15.4064 22.0176 14.4113C22.8057 14.7213 24.3941 15.32 25.0898 15.5806Z" fill="#FF3A1E" stroke="white" stroke-width="0.5"/>
<path d="M19.8756 21.5762C19.043 20.7571 18.5618 16.7682 18.4252 14.8761L18.75 13.3714C19.4962 13.7538 21.4078 14.2813 22.2703 14.4972C21.7334 18.4422 23.0154 22.1399 23.7235 23.4956C23.0637 23.5498 20.8833 22.2386 19.8756 21.5762Z" fill="#FF3A1E" stroke="white" stroke-width="0.5"/>
<path d="M22.3217 1.53175C23.0128 1.87026 24.1598 3.41492 23.2198 6.88545C22.9713 7.71858 22.7176 9.37885 23.1862 10.6729L23.8216 11.7054C23.5319 11.4156 23.3266 11.0607 23.1862 10.6729L19.2065 4.20571C19.4061 3.61579 20.3085 2.25512 22.3217 1.53175Z" fill="#FF3A1E"/>
<path d="M22.3217 1.53175C23.0128 1.87026 24.1598 3.41492 23.2198 6.88545C22.8969 7.96823 22.5651 10.4481 23.8216 11.7054L19.2065 4.20571C19.4061 3.61579 20.3085 2.25512 22.3217 1.53175Z" stroke="white" stroke-width="0.5"/>
<path d="M18.2611 5.11088C18.6499 6.44744 18.2913 7.08252 18.0634 7.233L21.4084 11.2796L23.8899 10.9596C23.0507 9.31458 22.8539 7.90356 22.8605 7.40368C22.9287 6.65736 22.8456 5.71199 22.6292 5.39651C21.8745 4.29594 22.0582 2.40749 22.3218 1.53219C20.5516 1.33214 18.9765 1.91766 18.4103 2.23543C17.7683 2.92855 18.0434 4.4412 18.2611 5.11088Z" fill="#FF3A1E" stroke="white" stroke-width="0.5"/>
<path d="M12.0718 4.31729C10.3538 6.37161 10.2649 7.20267 10.4351 7.36141C11.6005 5.76168 15.3063 8.38076 17.0136 9.89027C18.4324 9.69403 21.077 10.5641 22.2219 11.0237C21.8735 9.95216 20.5916 8.75273 19.9942 8.28695C18.9176 7.47191 18.4602 6.75657 18.3661 6.50079C16.0262 3.60257 13.1949 3.83753 12.0718 4.31729Z" fill="#FF3A1E" stroke="white" stroke-width="0.5"/>
<path d="M29.6313 16.5103C14.1267 13.2158 10.3911 9.00815 10.4614 7.31612C11.4454 5.61172 14.2589 6.94998 15.5426 7.83217C15.7811 7.92153 17.3692 8.78602 18.1334 9.2071C19.2827 10.064 20.7987 10.3833 21.4131 10.4358C21.9529 10.5057 22.6621 10.8547 22.9492 11.0204C28.6497 13.8765 32.1024 14.1494 33.1162 13.9288C31.5112 16.2901 30.1242 16.6336 29.6313 16.5103Z" fill="#FF3A1E" stroke="white" stroke-width="0.5"/>
<path d="M29.7408 10.7712C31.2389 11.4427 32.4153 12.3153 32.8163 12.6677C32.1635 12.2908 29.8238 13.0352 28.7356 13.4546C27.6921 13.3357 25.9841 12.6719 25.2606 12.3549C24.9551 12.1302 24.1744 11.8285 23.8222 11.7057C22.9406 11.3902 21.68 10.6704 21.1598 10.3499C23.8902 9.55705 28.0181 10.3004 29.7408 10.7712Z" fill="#FF3A1E" stroke="white" stroke-width="0.5"/>
<path d="M67.488 14.7C71.472 14.7 72.936 16.932 72.936 18.972C72.936 20.916 71.4 23.124 67.392 23.124C71.976 24.156 71.928 29.46 74.328 31.5H70.224C67.992 29.196 68.304 23.124 65.4 23.124H64.656V31.5H60.96V14.7H67.488ZM64.656 23.004H66.024C67.656 23.004 69.096 21.06 69.096 18.972C69.096 16.5 67.368 14.82 66.024 14.82H64.656V23.004ZM80.0798 19.26C83.3918 19.26 84.8798 22.332 84.8798 25.044H78.1118C78.5198 28.188 79.9358 30.444 82.1678 30.444C82.5278 30.444 83.5838 30.276 84.6398 28.98L84.7598 29.004C83.8478 30.732 82.2158 31.74 80.1278 31.74C76.8878 31.74 74.7278 29.244 74.7278 25.5C74.7278 21.708 76.9598 19.236 80.0798 19.26ZM78.0638 21.252C77.9438 22.548 77.9438 23.796 78.0878 24.924H81.3278C81.2318 23.58 80.9198 19.404 79.5518 19.404C78.6398 19.404 78.1838 20.076 78.0638 21.252ZM89.1808 30.396C88.2208 30.396 87.4288 29.58 87.4288 28.668C87.4288 27.732 88.2208 26.964 89.1808 26.964C90.0928 26.964 90.8848 27.732 90.8848 28.668C90.8848 29.58 90.0928 30.396 89.1808 30.396ZM87.4288 22.26C87.4288 21.324 88.2208 20.556 89.1808 20.556C90.0928 20.556 90.8848 21.324 90.8848 22.26C90.8848 23.172 90.0928 23.988 89.1808 23.988C88.2208 23.988 87.4288 23.172 87.4288 22.26ZM100.324 14.7C104.308 14.7 105.772 16.932 105.772 18.972C105.772 20.916 104.236 23.124 100.228 23.124C104.812 24.156 104.764 29.46 107.164 31.5H103.06C100.828 29.196 101.14 23.124 98.2359 23.124H97.4919V31.5H93.7959V14.7H100.324ZM97.4919 23.004H98.8599C100.492 23.004 101.932 21.06 101.932 18.972C101.932 16.5 100.204 14.82 98.8599 14.82H97.4919V23.004ZM112.551 31.5H108.999V19.5H112.551V31.5ZM108.783 16.428C108.783 15.372 109.695 14.46 110.799 14.46C111.855 14.46 112.767 15.372 112.767 16.428C112.767 17.508 111.855 18.42 110.799 18.42C109.695 18.42 108.783 17.508 108.783 16.428Z" fill="#FF3A1E"/>
</svg>
