<svg width="45" height="43" viewBox="0 0 45 43" fill="none" xmlns="http://www.w3.org/2000/svg">
<path d="M28.9037 4.78776C27.8958 2.51355 25.9543 3.26624 25.1095 3.92686C24.2331 4.77476 24.2384 5.15653 24.3505 5.24143C26.5608 3.42302 28.2159 5.1764 28.7672 6.28039L28.9037 4.78776Z" fill="#FF3A1E" stroke="white" stroke-width="0.5" stroke-linejoin="round"/>
<path d="M28.9037 4.78804C27.2047 8.40061 23.7483 8.76221 22.2325 8.49144L23.8998 13.1409C26.1874 13.7847 28.2938 10.5202 29.061 8.80751C29.6697 7.41826 29.2097 5.54901 28.9037 4.78804Z" fill="#FF3A1E" stroke="white" stroke-width="0.5" stroke-linejoin="round"/>
<path d="M26.4587 11.536C24.3865 9.17916 24.696 5.48163 25.1097 3.92747C23.3963 4.969 22.5084 6.37432 22.2786 6.94679L20.6681 9.94558L26.4587 11.536Z" fill="#FF3A1E" stroke="white" stroke-width="0.5" stroke-linejoin="round"/>
<path d="M11.3522 41.277C11.8852 40.6849 17.4014 15.4843 17.4631 12.9059C17.6407 12.8466 18.7215 11.4007 19.2397 10.6852L20.202 10.5371L20.6461 11.4254C20.4684 11.603 17.5248 34.5471 17.4631 37.7178C17.2558 37.8658 12.4749 41.2647 11.3522 41.277Z" fill="#FF3A1E"/>
<path d="M11.3522 41.277C11.8852 40.6849 17.4014 15.4843 17.4631 12.9059C17.6407 12.8466 18.7215 11.4007 19.2397 10.6852L20.202 10.5371L20.6461 11.4254C20.4684 11.603 17.5248 34.5471 17.4631 37.7178C17.2558 37.8658 12.4749 41.2647 11.3522 41.277Z" fill="#FF3A1E"/>
<path d="M17.4631 12.9059C17.4014 15.4843 11.8852 40.6849 11.3522 41.277C12.4749 41.2647 17.2558 37.8658 17.4631 37.7178C17.5248 34.5471 20.4684 11.603 20.6461 11.4254L20.202 10.5371L19.2397 10.6852C18.7215 11.4007 17.6407 12.8466 17.4631 12.9059Z" stroke="white" stroke-width="0.5" stroke-linejoin="round"/>
<path d="M32.3415 27.4532C29.7872 19.0365 22.379 15.8506 18.9941 15.3097L20.0933 13.1113C29.3475 15.6656 33.6151 21.7827 34.5922 24.522C37.649 33.1062 42.2168 34.8335 44.1185 34.6241L40.821 37.0842C35.9217 35.6186 33.1266 30.0529 32.3415 27.4532Z" fill="#FF3A1E" stroke="white" stroke-width="0.5" stroke-linejoin="round"/>
<path d="M32.7256 12.6156C33.3211 13.0078 33.2338 13.6545 33.1158 13.9288C32.8911 14.2342 32.2373 14.3685 31.9386 14.3975C32.2807 13.3862 31.8618 12.681 31.6096 12.4548C31.798 12.1284 32.4321 12.426 32.7256 12.6156Z" fill="#FF3A1E" stroke="white" stroke-width="0.5" stroke-linejoin="round"/>
<path d="M25.0902 15.5806C27.5696 18.6561 25.2125 22.1384 23.7241 23.4952C23.3196 23.3584 22.8063 21.5954 22.6002 20.731C23.0313 20.7381 23.6403 19.9414 23.891 19.5421C24.2148 19.1488 24.1948 18.3878 24.1443 18.0565C24.1361 17.5682 23.7923 17.41 23.6214 17.3919C23.1331 17.4002 22.4169 17.6636 22.1199 17.7943C21.82 17.4761 21.9271 15.4064 22.0181 14.4113C22.8062 14.7213 24.3946 15.32 25.0902 15.5806Z" fill="#FF3A1E" stroke="white" stroke-width="0.5" stroke-linejoin="round"/>
<path d="M19.8761 21.5762C19.0435 20.7571 18.5622 16.7682 18.4257 14.8761L18.7505 13.3714C19.4967 13.7538 21.4083 14.2813 22.2708 14.4972C21.7339 18.4422 23.0159 22.1399 23.724 23.4956C23.0641 23.5498 20.8838 22.2386 19.8761 21.5762Z" fill="#FF3A1E" stroke="white" stroke-width="0.5" stroke-linejoin="round"/>
<path d="M22.3222 1.53175C23.0132 1.87026 24.1603 3.41492 23.2203 6.88545C22.9718 7.71858 22.7181 9.37885 23.1867 10.6729L23.8221 11.7054C23.5324 11.4156 23.3271 11.0607 23.1867 10.6729L19.207 4.20571C19.4065 3.61579 20.309 2.25512 22.3222 1.53175Z" fill="#FF3A1E"/>
<path d="M22.3222 1.53175C23.0132 1.87026 24.1603 3.41492 23.2203 6.88545C22.8974 7.96823 22.5656 10.4481 23.8221 11.7054L19.207 4.20571C19.4065 3.61579 20.309 2.25512 22.3222 1.53175Z" stroke="white" stroke-width="0.5" stroke-linejoin="round"/>
<path d="M18.2616 5.11088C18.6504 6.44744 18.2918 7.08252 18.0639 7.233L21.4089 11.2796L23.8904 10.9596C23.0511 9.31458 22.8544 7.90356 22.861 7.40368C22.9292 6.65736 22.846 5.71199 22.6297 5.39651C21.875 4.29594 22.0587 2.40749 22.3223 1.53219C20.5521 1.33214 18.977 1.91766 18.4108 2.23543C17.7688 2.92855 18.0439 4.4412 18.2616 5.11088Z" fill="#FF3A1E" stroke="white" stroke-width="0.5" stroke-linejoin="round"/>
<path d="M12.071 4.31741C10.3531 6.37173 10.3297 7.34126 10.5 7.5C11.6653 5.90027 15.3056 8.38088 17.0129 9.89039C18.4317 9.69414 21.0763 10.5642 22.2212 11.0238C21.8728 9.95228 20.5909 8.75284 19.9935 8.28706C18.9168 7.47202 18.4595 6.75669 18.3654 6.5009C16.0255 3.60269 13.1942 3.83765 12.071 4.31741Z" fill="#FF3A1E" stroke="white" stroke-width="0.5" stroke-linejoin="round"/>
<path d="M29.6308 16.5103C14.1262 13.2158 10.3906 9.00815 10.4609 7.31612C11.4449 5.61172 14.2584 6.94998 15.5421 7.83217C15.7806 7.92153 17.3687 8.78602 18.1329 9.2071C19.2822 10.064 20.7982 10.3833 21.4126 10.4358C21.9525 10.5057 22.6616 10.8547 22.9487 11.0204C28.6492 13.8765 32.102 14.1494 33.1157 13.9288C31.5107 16.2901 30.1237 16.6336 29.6308 16.5103Z" fill="#FF3A1E" stroke="white" stroke-width="0.5" stroke-linejoin="round"/>
<path d="M29.7408 10.7712C31.2389 11.4427 32.4153 12.3153 32.8163 12.6677C32.1635 12.2908 30.5883 13.0807 29.5 13.5C28.4566 13.3811 25.9841 12.6719 25.2606 12.3549C24.9551 12.1302 24.1744 11.8285 23.8222 11.7057C22.9406 11.3902 21.68 10.6704 21.1598 10.3499C23.8902 9.55705 28.0181 10.3004 29.7408 10.7712Z" fill="#FF3A1E" stroke="white" stroke-width="0.5" stroke-linejoin="round"/>
</svg>
