<svg width="29" height="25" viewBox="0 0 29 25" fill="none" xmlns="http://www.w3.org/2000/svg">
<path d="M14.4986 0C22.5081 0 29 4.74638 29 10.6029C29 16.4582 22.5081 21.2046 14.5 21.2046C13.7027 21.2033 12.9062 21.1557 12.1151 21.0621L6.02786 24.7967C5.336 25.14 5.09157 25.1025 5.37605 24.2617L6.60786 19.4972C2.63071 17.6059 0 14.3285 0 10.6029C0 4.74768 6.49048 0 14.5 0M22.6587 10.441L24.6887 8.59634C24.8058 8.48223 24.8712 8.32992 24.8709 8.17151C24.8707 8.01309 24.805 7.86093 24.6876 7.74708C24.5701 7.63323 24.4102 7.56658 24.2414 7.56117C24.0726 7.55575 23.9082 7.612 23.7828 7.71805L21.1203 10.1353V8.13777C21.1203 7.9756 21.0516 7.82009 20.9294 7.70542C20.8071 7.59075 20.6413 7.52633 20.4685 7.52633C20.2956 7.52633 20.1298 7.59075 20.0076 7.70542C19.8853 7.82009 19.8167 7.9756 19.8167 8.13777V11.4501C19.7937 11.5448 19.7937 11.6431 19.8167 11.7377V13.6018C19.8167 13.764 19.8853 13.9195 20.0076 14.0342C20.1298 14.1488 20.2956 14.2132 20.4685 14.2132C20.6413 14.2132 20.8071 14.1488 20.9294 14.0342C21.0516 13.9195 21.1203 13.764 21.1203 13.6018V11.8362L21.71 11.3012L23.682 13.9347C23.7312 14.0005 23.7937 14.0565 23.8661 14.0996C23.9384 14.1426 24.019 14.1719 24.1034 14.1857C24.1878 14.1996 24.2742 14.1977 24.3578 14.1802C24.4414 14.1627 24.5205 14.1299 24.5906 14.0837C24.6607 14.0375 24.7204 13.9788 24.7663 13.911C24.8122 13.8432 24.8435 13.7675 24.8582 13.6884C24.873 13.6092 24.8709 13.5281 24.8523 13.4497C24.8336 13.3713 24.7987 13.2971 24.7494 13.2313L22.6587 10.441ZM18.5738 12.9334H16.5576V8.1572C16.5499 8.00007 16.4779 7.85178 16.3567 7.74315C16.2354 7.63452 16.0742 7.5739 15.9065 7.5739C15.7388 7.5739 15.5776 7.63452 15.4563 7.74315C15.3351 7.85178 15.2631 8.00007 15.2554 8.1572V13.5448C15.2554 13.8816 15.5454 14.1562 15.9058 14.1562H18.5738C18.7467 14.1562 18.9125 14.0918 19.0347 13.9772C19.1569 13.8625 19.2256 13.707 19.2256 13.5448C19.2256 13.3826 19.1569 13.2271 19.0347 13.1125C18.9125 12.9978 18.7467 12.9334 18.5738 12.9334ZM10.4856 11.5201L11.4467 9.30752L12.3278 11.5188L10.4856 11.5201ZM13.9697 12.1509L13.9725 12.1302C13.972 11.9762 13.9093 11.8281 13.7971 11.7157L12.3526 8.08854C12.2921 7.91569 12.1767 7.76429 12.022 7.65457C11.8673 7.54485 11.6806 7.48204 11.4868 7.47452C11.2917 7.47443 11.1012 7.52969 10.9403 7.63304C10.7793 7.73638 10.6555 7.88298 10.585 8.05357L8.28986 13.3324C8.22448 13.4825 8.22536 13.6509 8.29231 13.8004C8.35926 13.9499 8.48678 14.0684 8.64683 14.1297C8.80689 14.191 8.98635 14.1902 9.14575 14.1274C9.30515 14.0646 9.43143 13.945 9.49681 13.7948L9.95529 12.7417H12.8139L13.2254 13.778C13.2535 13.8554 13.2978 13.9268 13.3558 13.9879C13.4139 14.049 13.4844 14.0986 13.5632 14.1336C13.642 14.1687 13.7275 14.1886 13.8146 14.1921C13.9017 14.1956 13.9888 14.1826 14.0705 14.154C14.1522 14.1254 14.2269 14.0817 14.2903 14.0255C14.3537 13.9693 14.4044 13.9017 14.4394 13.8268C14.4745 13.7518 14.4931 13.6711 14.4943 13.5893C14.4954 13.5075 14.479 13.4263 14.4461 13.3505L13.9697 12.1509ZM9.38081 8.16368C9.38117 8.0834 9.36461 8.00384 9.33207 7.92959C9.29953 7.85533 9.25165 7.78785 9.1912 7.73102C9.13075 7.67419 9.05891 7.62914 8.97982 7.59846C8.90074 7.56778 8.81596 7.55207 8.73038 7.55224H4.24919C4.07632 7.55224 3.91053 7.61666 3.78829 7.73133C3.66605 7.84599 3.59738 8.00151 3.59738 8.16368C3.59738 8.32584 3.66605 8.48136 3.78829 8.59602C3.91053 8.71069 4.07632 8.77511 4.24919 8.77511H5.8511V13.6148C5.8511 13.7769 5.91977 13.9324 6.04201 14.0471C6.16424 14.1618 6.33003 14.2262 6.5029 14.2262C6.67578 14.2262 6.84157 14.1618 6.9638 14.0471C7.08604 13.9324 7.15471 13.7769 7.15471 13.6148V8.77511H8.729C8.8147 8.77545 8.89962 8.75987 8.97887 8.72927C9.05811 8.69866 9.13011 8.65363 9.19071 8.59679C9.25131 8.53994 9.29931 8.4724 9.33194 8.39807C9.36456 8.32373 9.38117 8.24407 9.38081 8.16368Z" fill="#FEE500"/>
</svg>
