<svg width="48" height="41" viewBox="0 0 48 41" fill="none" xmlns="http://www.w3.org/2000/svg">
<mask id="path-1-inside-1_517_2" fill="white">
<path d="M23.9977 0C37.2549 0 48 7.78407 48 17.3888C48 26.9914 37.2549 34.7755 24 34.7755C22.6803 34.7733 21.3619 34.6953 20.0526 34.5418L9.97714 40.6667C8.832 41.2296 8.42743 41.168 8.89829 39.7893L10.9371 31.9754C4.35428 28.8737 0 23.4988 0 17.3888C0 7.78619 10.7429 0 24 0M37.504 17.1233L40.864 14.098C41.0579 13.9109 41.166 13.6611 41.1657 13.4013C41.1654 13.1415 41.0566 12.8919 40.8622 12.7052C40.6678 12.5185 40.4031 12.4092 40.1237 12.4003C39.8444 12.3914 39.5722 12.4837 39.3646 12.6576L34.9577 16.6219V13.3459C34.9577 13.08 34.844 12.8249 34.6417 12.6369C34.4394 12.4488 34.165 12.3432 33.8789 12.3432C33.5927 12.3432 33.3183 12.4488 33.116 12.6369C32.9137 12.8249 32.8 13.08 32.8 13.3459V18.7782C32.762 18.9334 32.762 19.0946 32.8 19.2498V22.307C32.8 22.5729 32.9137 22.828 33.116 23.016C33.3183 23.2041 33.5927 23.3097 33.8789 23.3097C34.165 23.3097 34.4394 23.2041 34.6417 23.016C34.844 22.828 34.9577 22.5729 34.9577 22.307V19.4113L35.9337 18.5339L39.1977 22.853C39.2792 22.9608 39.3828 23.0526 39.5024 23.1233C39.6221 23.1939 39.7556 23.2419 39.8953 23.2646C40.0349 23.2873 40.178 23.2842 40.3164 23.2555C40.4548 23.2268 40.5857 23.173 40.7017 23.0973C40.8177 23.0215 40.9166 22.9253 40.9925 22.814C41.0685 22.7028 41.1202 22.5787 41.1446 22.4489C41.169 22.3191 41.1657 22.1861 41.1348 22.0575C41.1039 21.9289 41.0461 21.8072 40.9646 21.6994L37.504 17.1233ZM30.7429 21.2107H27.4057V13.3778C27.3929 13.1201 27.2738 12.8769 27.0731 12.6988C26.8724 12.5206 26.6055 12.4212 26.328 12.4212C26.0505 12.4212 25.7836 12.5206 25.5829 12.6988C25.3822 12.8769 25.2631 13.1201 25.2503 13.3778V22.2135C25.2503 22.7659 25.7303 23.2162 26.3269 23.2162H30.7429C31.029 23.2162 31.3034 23.1106 31.5057 22.9225C31.708 22.7345 31.8217 22.4794 31.8217 22.2135C31.8217 21.9475 31.708 21.6925 31.5057 21.5044C31.3034 21.3164 31.029 21.2107 30.7429 21.2107ZM17.3554 18.8929L18.9463 15.2643L20.4046 18.8908L17.3554 18.8929ZM23.1269 19.8936L22.8366 19.2137L20.4457 13.2652C20.3455 12.9817 20.1546 12.7334 19.8985 12.5535C19.6424 12.3736 19.3333 12.2705 19.0126 12.2582C18.6898 12.2581 18.3744 12.3487 18.1081 12.5182C17.8417 12.6877 17.6367 12.9281 17.52 13.2078L13.7211 21.8651C13.6129 22.1113 13.6144 22.3874 13.7252 22.6326C13.836 22.8778 14.0471 23.0721 14.312 23.1727C14.5769 23.2733 14.874 23.2719 15.1378 23.1689C15.4016 23.0659 15.6106 22.8697 15.7189 22.6235L16.4777 20.8963H21.2091L21.8903 22.5959C21.9368 22.7229 22.0102 22.84 22.1062 22.9402C22.2022 23.0404 22.3189 23.1216 22.4494 23.1791C22.5798 23.2366 22.7213 23.2692 22.8656 23.275C23.0098 23.2807 23.1538 23.2595 23.289 23.2126C23.4243 23.1656 23.548 23.094 23.6529 23.0018C23.7578 22.9096 23.8418 22.7988 23.8997 22.6759C23.9577 22.553 23.9886 22.4206 23.9905 22.2864C23.9924 22.1522 23.9653 22.0191 23.9109 21.8948L23.1269 19.8936ZM15.5269 13.3884C15.5275 13.2568 15.5 13.1263 15.4462 13.0045C15.3923 12.8827 15.3131 12.7721 15.213 12.6789C15.113 12.5857 14.9941 12.5118 14.8632 12.4615C14.7323 12.4112 14.5919 12.3854 14.4503 12.3857H7.03314C6.74701 12.3857 6.4726 12.4913 6.27028 12.6794C6.06795 12.8674 5.95429 13.1225 5.95429 13.3884C5.95429 13.6544 6.06795 13.9094 6.27028 14.0975C6.4726 14.2855 6.74701 14.3912 7.03314 14.3912H9.68457V22.3282C9.68457 22.5942 9.79824 22.8492 10.0006 23.0373C10.2029 23.2253 10.4773 23.331 10.7634 23.331C11.0496 23.331 11.324 23.2253 11.5263 23.0373C11.7286 22.8492 11.8423 22.5942 11.8423 22.3282V14.3912H14.448C14.5898 14.3917 14.7304 14.3662 14.8616 14.316C14.9927 14.2658 15.1119 14.192 15.2122 14.0987C15.3125 14.0055 15.392 13.8947 15.446 13.7728C15.5 13.6509 15.5275 13.5203 15.5269 13.3884Z"/>
</mask>
<path d="M24 34.7755L23.9987 35.5755H24V34.7755ZM20.0526 34.5418L20.1457 33.7472L19.8723 33.7152L19.637 33.8582L20.0526 34.5418ZM9.97714 40.6667L10.3301 41.3846L10.3622 41.3688L10.3927 41.3503L9.97714 40.6667ZM8.89829 39.7893L9.65536 40.0478L9.66491 40.0198L9.67237 39.9912L8.89829 39.7893ZM10.9371 31.9754L11.7112 32.1774L11.8789 31.5348L11.2781 31.2518L10.9371 31.9754ZM37.504 17.1233L36.9687 16.5287L36.423 17.0201L36.8659 17.6058L37.504 17.1233ZM40.864 14.098L41.3993 14.6925L41.4096 14.6832L41.4196 14.6736L40.864 14.098ZM39.3646 12.6576L38.8509 12.0443L38.84 12.0534L38.8295 12.0628L39.3646 12.6576ZM34.9577 16.6219H34.1577V18.4176L35.4927 17.2166L34.9577 16.6219ZM33.8789 12.3432L33.8789 13.1432L33.8789 12.3432ZM32.8 18.7782L33.577 18.9686L33.6 18.8748V18.7782H32.8ZM32.8 19.2498H33.6V19.1533L33.577 19.0595L32.8 19.2498ZM32.8 22.307H33.6H32.8ZM33.8789 23.3097L33.8789 22.5097L33.8789 23.3097ZM34.9577 22.307L34.1577 22.307L34.9577 22.307ZM34.9577 19.4113L34.4229 18.8164L34.1577 19.0547V19.4113H34.9577ZM35.9337 18.5339L36.572 18.0516L36.0467 17.3566L35.3989 17.939L35.9337 18.5339ZM39.1977 22.853L38.5595 23.3353L38.5595 23.3353L39.1977 22.853ZM40.9646 21.6994L41.6028 21.217L41.6027 21.2168L40.9646 21.6994ZM27.4057 21.2107H26.6057V22.0107H27.4057V21.2107ZM27.4057 13.3778H28.2057V13.358L28.2047 13.3382L27.4057 13.3778ZM26.328 12.4212L26.328 13.2212L26.328 12.4212ZM25.2503 13.3778L24.4513 13.3382L24.4503 13.358V13.3778H25.2503ZM30.7429 23.2162V22.4162V23.2162ZM17.3554 18.8929L16.6228 18.5717L16.1308 19.6938L17.356 19.6929L17.3554 18.8929ZM18.9463 15.2643L19.6885 14.9659L18.9781 13.1993L18.2136 14.9431L18.9463 15.2643ZM20.4046 18.8908L20.4051 19.6908L21.5882 19.69L21.1468 18.5923L20.4046 18.8908ZM23.1269 19.8936L23.8717 19.6018L23.8673 19.5905L23.8626 19.5794L23.1269 19.8936ZM22.8366 19.2137L22.0943 19.5121L22.0975 19.52L22.1008 19.5279L22.8366 19.2137ZM20.4457 13.2652L19.6915 13.5319L19.6971 13.5478L19.7034 13.5636L20.4457 13.2652ZM19.0126 12.2582L19.0433 11.4588L19.0281 11.4582L19.0129 11.4582L19.0126 12.2582ZM17.52 13.2078L18.2526 13.5293L18.2555 13.5226L18.2584 13.5158L17.52 13.2078ZM13.7211 21.8651L14.4535 22.1869L14.4537 22.1865L13.7211 21.8651ZM15.7189 22.6235L16.4513 22.9454L16.4513 22.9453L15.7189 22.6235ZM16.4777 20.8963V20.0963H15.9554L15.7453 20.5745L16.4777 20.8963ZM21.2091 20.8963L21.9517 20.5987L21.7504 20.0963H21.2091V20.8963ZM21.8903 22.5959L22.6416 22.3211L22.6374 22.3096L22.6329 22.2983L21.8903 22.5959ZM23.9109 21.8948L23.166 22.1866L23.1718 22.2014L23.1782 22.216L23.9109 21.8948ZM15.5269 13.3884L14.7268 13.3848L14.7269 13.3921L15.5269 13.3884ZM14.4503 12.3857L14.4503 13.1857L14.4519 13.1857L14.4503 12.3857ZM7.03314 12.3857V13.1857V12.3857ZM9.68457 14.3912H10.4846V13.5912H9.68457V14.3912ZM10.7634 23.331L10.7634 22.531L10.7634 23.331ZM11.8423 14.3912V13.5912H11.0423V14.3912H11.8423ZM14.448 14.3912L14.4512 13.5912H14.448V14.3912ZM23.9977 0V0.8C30.4763 0.8 36.3083 2.70314 40.5009 5.74048C44.6945 8.77849 47.2 12.9068 47.2 17.3888H48H48.8C48.8 12.2661 45.933 7.69999 41.4396 4.44477C36.9454 1.18889 30.7763 -0.8 23.9977 -0.8V0ZM48 17.3888H47.2C47.2 21.8697 44.6945 25.9975 40.5012 29.0353C36.3089 32.0724 30.4774 33.9755 24 33.9755V34.7755V35.5755C30.7774 35.5755 36.946 33.5866 41.4399 30.331C45.9329 27.0761 48.8 22.5105 48.8 17.3888H48ZM24 34.7755L24.0013 33.9755C22.7122 33.9734 21.4246 33.8971 20.1457 33.7472L20.0526 34.5418L19.9594 35.3364C21.2993 35.4934 22.6483 35.5733 23.9987 35.5755L24 34.7755ZM20.0526 34.5418L19.637 33.8582L9.56158 39.9831L9.97714 40.6667L10.3927 41.3503L20.4681 35.2254L20.0526 34.5418ZM9.97714 40.6667L9.62419 39.9487C9.49109 40.0142 9.37598 40.0669 9.27704 40.1078C9.17691 40.1492 9.10275 40.1745 9.05028 40.1887C9.02476 40.1956 9.00864 40.1988 9.00065 40.2C8.99237 40.2013 8.99714 40.1999 9.0124 40.2C9.03971 40.2001 9.14169 40.2055 9.2596 40.2802C9.31895 40.3177 9.37056 40.3658 9.4115 40.4203C9.45155 40.4737 9.47476 40.5243 9.48785 40.5627C9.50062 40.6001 9.50415 40.6267 9.50514 40.6365C9.50615 40.6464 9.50519 40.6455 9.506 40.6307C9.50773 40.5989 9.51565 40.5359 9.54046 40.4324C9.56478 40.3309 9.60201 40.204 9.65536 40.0478L8.89829 39.7893L8.14121 39.5307C8.0173 39.8936 7.92489 40.2402 7.90836 40.5437C7.8933 40.8204 7.93253 41.3337 8.40383 41.6321C8.80475 41.8859 9.24962 41.7923 9.46822 41.7332C9.73667 41.6605 10.0328 41.5308 10.3301 41.3846L9.97714 40.6667ZM8.89829 39.7893L9.67237 39.9912L11.7112 32.1774L10.9371 31.9754L10.1631 31.7735L8.1242 39.5873L8.89829 39.7893ZM10.9371 31.9754L11.2781 31.2518C4.86749 28.2312 0.8 23.0852 0.8 17.3888H0H-0.8C-0.8 23.9123 3.84108 29.5163 10.5962 32.6991L10.9371 31.9754ZM0 17.3888H0.8C0.8 12.9078 3.30501 8.7795 7.49798 5.74123C11.69 2.70364 17.5215 0.8 24 0.8V0V-0.8C17.2214 -0.8 11.0528 1.18945 6.55916 4.44562C2.06642 7.7011 -0.8 12.2672 -0.8 17.3888H0ZM37.504 17.1233L38.0393 17.7178L41.3993 14.6925L40.864 14.098L40.3287 13.5035L36.9687 16.5287L37.504 17.1233ZM40.864 14.098L41.4196 14.6736C41.7634 14.3417 41.9663 13.8864 41.9657 13.4002L41.1657 13.4013L40.3657 13.4023C40.3658 13.4358 40.3524 13.48 40.3084 13.5224L40.864 14.098ZM41.1657 13.4013L41.9657 13.4002C41.9651 12.9141 41.761 12.4593 41.4164 12.1283L40.8622 12.7052L40.308 13.2821C40.3522 13.3246 40.3657 13.3689 40.3657 13.4023L41.1657 13.4013ZM40.8622 12.7052L41.4164 12.1283C41.0737 11.799 40.6182 11.6156 40.1491 11.6007L40.1237 12.4003L40.0983 13.1999C40.188 13.2028 40.262 13.238 40.308 13.2821L40.8622 12.7052ZM40.1237 12.4003L40.1491 11.6007C39.6802 11.5858 39.2144 11.7398 38.8509 12.0443L39.3646 12.6576L39.8783 13.2709C39.93 13.2275 40.0086 13.1971 40.0983 13.1999L40.1237 12.4003ZM39.3646 12.6576L38.8295 12.0628L34.4227 16.0271L34.9577 16.6219L35.4927 17.2166L39.8996 13.2524L39.3646 12.6576ZM34.9577 16.6219H35.7577V13.3459H34.9577H34.1577V16.6219H34.9577ZM34.9577 13.3459H35.7577C35.7577 12.8481 35.5444 12.3837 35.1864 12.0509L34.6417 12.6369L34.0971 13.2229C34.1437 13.2662 34.1577 13.3118 34.1577 13.3459H34.9577ZM34.6417 12.6369L35.1864 12.0509C34.8303 11.7199 34.359 11.5432 33.8789 11.5432L33.8789 12.3432L33.8789 13.1432C33.9709 13.1432 34.0485 13.1777 34.0971 13.2229L34.6417 12.6369ZM33.8789 12.3432L33.8789 11.5432C33.3987 11.5432 32.9274 11.7199 32.5714 12.0509L33.116 12.6369L33.6606 13.2229C33.7092 13.1777 33.7868 13.1432 33.8789 13.1432L33.8789 12.3432ZM33.116 12.6369L32.5714 12.0509C32.2133 12.3837 32 12.8481 32 13.3459H32.8H33.6C33.6 13.3118 33.614 13.2662 33.6606 13.2229L33.116 12.6369ZM32.8 13.3459H32V18.7782H32.8H33.6V13.3459H32.8ZM32.8 18.7782L32.023 18.5879C31.9543 18.8681 31.9543 19.1599 32.023 19.4402L32.8 19.2498L33.577 19.0595C33.5696 19.0293 33.5696 18.9987 33.577 18.9686L32.8 18.7782ZM32.8 19.2498H32V22.307H32.8H33.6V19.2498H32.8ZM32.8 22.307L32 22.307C32 22.8048 32.2133 23.2692 32.5714 23.602L33.116 23.016L33.6606 22.43C33.614 22.3867 33.6 22.3411 33.6 22.307L32.8 22.307ZM33.116 23.016L32.5714 23.602C32.9274 23.933 33.3987 24.1097 33.8789 24.1097L33.8789 23.3097L33.8789 22.5097C33.7868 22.5097 33.7092 22.4752 33.6606 22.43L33.116 23.016ZM33.8789 23.3097L33.8789 24.1097C34.359 24.1097 34.8303 23.933 35.1864 23.602L34.6417 23.016L34.0971 22.43C34.0485 22.4752 33.9709 22.5097 33.8789 22.5097L33.8789 23.3097ZM34.6417 23.016L35.1864 23.602C35.5444 23.2692 35.7577 22.8048 35.7577 22.307L34.9577 22.307L34.1577 22.307C34.1577 22.3411 34.1437 22.3867 34.0971 22.43L34.6417 23.016ZM34.9577 22.307H35.7577V19.4113H34.9577H34.1577V22.307H34.9577ZM34.9577 19.4113L35.4926 20.0062L36.4686 19.1288L35.9337 18.5339L35.3989 17.939L34.4229 18.8164L34.9577 19.4113ZM35.9337 18.5339L35.2955 19.0162L38.5595 23.3353L39.1977 22.853L39.836 22.3706L36.572 18.0516L35.9337 18.5339ZM39.1977 22.853L38.5595 23.3353C38.7058 23.5289 38.8888 23.6901 39.0958 23.8122L39.5024 23.1233L39.909 22.4343C39.8767 22.4152 39.8527 22.3927 39.8359 22.3706L39.1977 22.853ZM39.5024 23.1233L39.0958 23.8122C39.3028 23.9344 39.5309 24.0159 39.767 24.0543L39.8953 23.2646L40.0235 22.475C39.9803 22.468 39.9415 22.4534 39.909 22.4343L39.5024 23.1233ZM39.8953 23.2646L39.767 24.0543C40.0031 24.0926 40.2447 24.0874 40.479 24.0388L40.3164 23.2555L40.1538 22.4722C40.1113 22.481 40.0668 22.482 40.0235 22.475L39.8953 23.2646ZM40.3164 23.2555L40.479 24.0388C40.7132 23.9902 40.9377 23.8986 41.1391 23.7671L40.7017 23.0973L40.2644 22.4274C40.2337 22.4474 40.1963 22.4634 40.1538 22.4722L40.3164 23.2555ZM40.7017 23.0973L41.1391 23.7671C41.3406 23.6356 41.5161 23.4658 41.6531 23.2653L40.9925 22.814L40.332 22.3628C40.317 22.3847 40.2949 22.4075 40.2644 22.4274L40.7017 23.0973ZM40.9925 22.814L41.6531 23.2653C41.7902 23.0646 41.8856 22.8375 41.9309 22.5968L41.1446 22.4489L40.3584 22.3011C40.3549 22.3199 40.3468 22.341 40.332 22.3628L40.9925 22.814ZM41.1446 22.4489L41.9309 22.5968C41.9762 22.3559 41.9699 22.1088 41.9127 21.8706L41.1348 22.0575L40.3569 22.2444C40.3615 22.2634 40.3619 22.2823 40.3584 22.3011L41.1446 22.4489ZM41.1348 22.0575L41.9127 21.8706C41.8555 21.6326 41.7492 21.4107 41.6028 21.217L40.9646 21.6994L40.3263 22.1817C40.3429 22.2037 40.3523 22.2252 40.3569 22.2444L41.1348 22.0575ZM40.9646 21.6994L41.6027 21.2168L38.1421 16.6407L37.504 17.1233L36.8659 17.6058L40.3265 22.1819L40.9646 21.6994ZM30.7429 21.2107V20.4107H27.4057V21.2107V22.0107H30.7429V21.2107ZM27.4057 21.2107H28.2057V13.3778H27.4057H26.6057V21.2107H27.4057ZM27.4057 13.3778L28.2047 13.3382C28.1809 12.8564 27.9584 12.4149 27.6042 12.1005L27.0731 12.6988L26.542 13.2971C26.5892 13.339 26.605 13.3839 26.6067 13.4174L27.4057 13.3778ZM27.0731 12.6988L27.6042 12.1005C27.2517 11.7876 26.7939 11.6212 26.328 11.6212L26.328 12.4212L26.328 13.2212C26.4171 13.2212 26.4931 13.2536 26.542 13.2971L27.0731 12.6988ZM26.328 12.4212L26.328 11.6212C25.8621 11.6212 25.4043 11.7876 25.0518 12.1005L25.5829 12.6988L26.114 13.2971C26.1629 13.2536 26.2389 13.2212 26.328 13.2212L26.328 12.4212ZM25.5829 12.6988L25.0518 12.1005C24.6976 12.4149 24.4751 12.8564 24.4513 13.3382L25.2503 13.3778L26.0493 13.4174C26.051 13.3839 26.0668 13.339 26.114 13.2971L25.5829 12.6988ZM25.2503 13.3778H24.4503V22.2135H25.2503H26.0503V13.3778H25.2503ZM25.2503 22.2135H24.4503C24.4503 23.2586 25.3412 24.0162 26.3269 24.0162V23.2162V22.4162C26.1194 22.4162 26.0503 22.2731 26.0503 22.2135H25.2503ZM26.3269 23.2162V24.0162H30.7429V23.2162V22.4162H26.3269V23.2162ZM30.7429 23.2162L30.7429 24.0162C31.223 24.0162 31.6943 23.8395 32.0504 23.5085L31.5057 22.9225L30.9611 22.3366C30.9125 22.3817 30.8349 22.4162 30.7429 22.4162L30.7429 23.2162ZM31.5057 22.9225L32.0504 23.5085C32.4084 23.1757 32.6217 22.7113 32.6217 22.2135H31.8217H31.0217C31.0217 22.2476 31.0077 22.2933 30.9611 22.3366L31.5057 22.9225ZM31.8217 22.2135H32.6217C32.6217 21.7157 32.4084 21.2513 32.0504 20.9185L31.5057 21.5044L30.9611 22.0904C31.0077 22.1337 31.0217 22.1794 31.0217 22.2135H31.8217ZM31.5057 21.5044L32.0504 20.9185C31.6943 20.5875 31.223 20.4107 30.7429 20.4107V21.2107V22.0107C30.8349 22.0107 30.9125 22.0453 30.9611 22.0904L31.5057 21.5044ZM17.3554 18.8929L18.0881 19.2142L19.679 15.5856L18.9463 15.2643L18.2136 14.9431L16.6228 18.5717L17.3554 18.8929ZM18.9463 15.2643L18.204 15.5628L19.6623 19.1893L20.4046 18.8908L21.1468 18.5923L19.6885 14.9659L18.9463 15.2643ZM20.4046 18.8908L20.404 18.0908L17.3549 18.0929L17.3554 18.8929L17.356 19.6929L20.4051 19.6908L20.4046 18.8908ZM23.1269 19.8936L23.8626 19.5794L23.5723 18.8996L22.8366 19.2137L22.1008 19.5279L22.3911 20.2077L23.1269 19.8936ZM22.8366 19.2137L23.5789 18.9154L21.188 12.9669L20.4457 13.2652L19.7034 13.5636L22.0943 19.5121L22.8366 19.2137ZM20.4457 13.2652L21.2 12.9985C21.042 12.5516 20.7446 12.1703 20.3584 11.8989L19.8985 12.5535L19.4386 13.2081C19.5646 13.2966 19.649 13.4118 19.6915 13.5319L20.4457 13.2652ZM19.8985 12.5535L20.3584 11.8989C19.9728 11.628 19.5139 11.4769 19.0433 11.4588L19.0126 12.2582L18.9818 13.0576C19.1527 13.0642 19.312 13.1191 19.4386 13.2081L19.8985 12.5535ZM19.0126 12.2582L19.0129 11.4582C18.5415 11.458 18.0765 11.5901 17.6786 11.8432L18.1081 12.5182L18.5375 13.1931C18.6724 13.1073 18.838 13.0581 19.0122 13.0582L19.0126 12.2582ZM18.1081 12.5182L17.6786 11.8432C17.2802 12.0967 16.964 12.4625 16.7816 12.8999L17.52 13.2078L18.2584 13.5158C18.3093 13.3936 18.4031 13.2787 18.5375 13.1931L18.1081 12.5182ZM17.52 13.2078L16.7874 12.8864L12.9886 21.5436L13.7211 21.8651L14.4537 22.1865L18.2526 13.5293L17.52 13.2078ZM13.7211 21.8651L12.9887 21.5432C12.7892 21.9973 12.792 22.5101 12.9962 22.962L13.7252 22.6326L14.4542 22.3032C14.4368 22.2646 14.4367 22.2253 14.4535 22.1869L13.7211 21.8651ZM13.7252 22.6326L12.9962 22.962C13.1991 23.4112 13.5769 23.7493 14.0281 23.9206L14.312 23.1727L14.5959 22.4248C14.5173 22.3949 14.4729 22.3445 14.4542 22.3032L13.7252 22.6326ZM14.312 23.1727L14.0281 23.9206C14.4782 24.0915 14.9801 24.0893 15.4287 23.9141L15.1378 23.1689L14.8469 22.4237C14.7678 22.4545 14.6756 22.455 14.5959 22.4248L14.312 23.1727ZM15.1378 23.1689L15.4287 23.9141C15.8783 23.7386 16.2529 23.3968 16.4513 22.9454L15.7189 22.6235L14.9865 22.3016C14.9684 22.3427 14.9249 22.3932 14.8469 22.4237L15.1378 23.1689ZM15.7189 22.6235L16.4513 22.9453L17.2101 21.2181L16.4777 20.8963L15.7453 20.5745L14.9864 22.3017L15.7189 22.6235ZM16.4777 20.8963V21.6963H21.2091V20.8963V20.0963H16.4777V20.8963ZM21.2091 20.8963L20.4666 21.1939L21.1477 22.8935L21.8903 22.5959L22.6329 22.2983L21.9517 20.5987L21.2091 20.8963ZM21.8903 22.5959L21.139 22.8707C21.2244 23.1044 21.3581 23.3158 21.5287 23.4938L22.1062 22.9402L22.6837 22.3866C22.6623 22.3642 22.6491 22.3415 22.6416 22.3211L21.8903 22.5959ZM22.1062 22.9402L21.5287 23.4938C21.6991 23.6716 21.9031 23.8126 22.1266 23.9112L22.4494 23.1791L22.7721 22.4471C22.7348 22.4307 22.7053 22.4092 22.6837 22.3866L22.1062 22.9402ZM22.4494 23.1791L22.1266 23.9112C22.3501 24.0097 22.5905 24.0647 22.8337 24.0743L22.8656 23.275L22.8974 22.4756C22.8522 22.4738 22.8095 22.4636 22.7721 22.4471L22.4494 23.1791ZM22.8656 23.275L22.8337 24.0743C23.077 24.084 23.3208 24.0483 23.5513 23.9684L23.289 23.2126L23.0268 22.4568C22.9868 22.4707 22.9426 22.4774 22.8974 22.4756L22.8656 23.275ZM23.289 23.2126L23.5513 23.9684C23.7818 23.8884 23.9964 23.765 24.181 23.6027L23.6529 23.0018L23.1248 22.4009C23.0997 22.423 23.0668 22.4429 23.0268 22.4568L23.289 23.2126ZM23.6529 23.0018L24.181 23.6027C24.3658 23.4404 24.5172 23.2419 24.6232 23.0173L23.8997 22.6759L23.1762 22.3345C23.1663 22.3556 23.1499 22.3789 23.1248 22.4009L23.6529 23.0018ZM23.8997 22.6759L24.6232 23.0173C24.7293 22.7925 24.7869 22.5476 24.7904 22.2978L23.9905 22.2864L23.1906 22.275C23.1903 22.2935 23.1861 22.3136 23.1762 22.3345L23.8997 22.6759ZM23.9905 22.2864L24.7904 22.2978C24.794 22.0479 24.7434 21.8015 24.6436 21.5737L23.9109 21.8948L23.1782 22.216C23.1872 22.2367 23.1908 22.2565 23.1906 22.275L23.9905 22.2864ZM23.9109 21.8948L24.6557 21.603L23.8717 19.6018L23.1269 19.8936L22.382 20.1854L23.166 22.1866L23.9109 21.8948ZM15.5269 13.3884L16.3268 13.3921C16.328 13.1464 16.2767 12.9045 16.1778 12.6809L15.4462 13.0045L14.7146 13.3281C14.7234 13.348 14.7269 13.3671 14.7269 13.3848L15.5269 13.3884ZM15.4462 13.0045L16.1778 12.6809C16.079 12.4575 15.9353 12.2584 15.7583 12.0935L15.213 12.6789L14.6678 13.2643C14.6908 13.2858 14.7057 13.308 14.7146 13.3281L15.4462 13.0045ZM15.213 12.6789L15.7583 12.0935C15.5813 11.9287 15.3742 11.8009 15.1502 11.7147L14.8632 12.4615L14.5761 13.2082C14.6139 13.2227 14.6446 13.2427 14.6678 13.2643L15.213 12.6789ZM14.8632 12.4615L15.1502 11.7147C14.9263 11.6287 14.688 11.5852 14.4487 11.5857L14.4503 12.3857L14.4519 13.1857C14.4959 13.1856 14.5383 13.1937 14.5761 13.2082L14.8632 12.4615ZM14.4503 12.3857V11.5857H7.03314V12.3857V13.1857H14.4503V12.3857ZM7.03314 12.3857L7.03314 11.5857C6.55296 11.5857 6.08173 11.7624 5.72564 12.0934L6.27028 12.6794L6.81491 13.2654C6.86348 13.2202 6.94107 13.1857 7.03314 13.1857L7.03314 12.3857ZM6.27028 12.6794L5.72564 12.0934C5.36757 12.4262 5.15429 12.8906 5.15429 13.3884H5.95429H6.75429C6.75429 13.3543 6.76833 13.3087 6.81491 13.2654L6.27028 12.6794ZM5.95429 13.3884H5.15429C5.15429 13.8862 5.36757 14.3507 5.72564 14.6835L6.27028 14.0975L6.81491 13.5115C6.76833 13.4682 6.75429 13.4225 6.75429 13.3884H5.95429ZM6.27028 14.0975L5.72564 14.6835C6.08173 15.0144 6.55296 15.1912 7.03314 15.1912V14.3912V13.5912C6.94107 13.5912 6.86347 13.5566 6.81491 13.5115L6.27028 14.0975ZM7.03314 14.3912V15.1912H9.68457V14.3912V13.5912H7.03314V14.3912ZM9.68457 14.3912H8.88457V22.3282H9.68457H10.4846V14.3912H9.68457ZM9.68457 22.3282H8.88457C8.88457 22.826 9.09786 23.2904 9.45592 23.6232L10.0006 23.0373L10.5452 22.4513C10.4986 22.408 10.4846 22.3623 10.4846 22.3282H9.68457ZM10.0006 23.0373L9.45592 23.6232C9.81201 23.9542 10.2832 24.131 10.7634 24.131L10.7634 23.331L10.7634 22.531C10.6714 22.531 10.5938 22.4964 10.5452 22.4513L10.0006 23.0373ZM10.7634 23.331L10.7634 24.131C11.2436 24.131 11.7148 23.9542 12.0709 23.6232L11.5263 23.0373L10.9817 22.4513C10.9331 22.4964 10.8555 22.531 10.7634 22.531L10.7634 23.331ZM11.5263 23.0373L12.0709 23.6232C12.429 23.2904 12.6423 22.826 12.6423 22.3282H11.8423H11.0423C11.0423 22.3623 11.0282 22.408 10.9817 22.4513L11.5263 23.0373ZM11.8423 22.3282H12.6423V14.3912H11.8423H11.0423V22.3282H11.8423ZM11.8423 14.3912V15.1912H14.448V14.3912V13.5912H11.8423V14.3912ZM14.448 14.3912L14.4448 15.1912C14.6845 15.1921 14.9231 15.149 15.1475 15.0632L14.8616 14.316L14.5757 13.5688C14.5377 13.5834 14.4952 13.5914 14.4512 13.5912L14.448 14.3912ZM14.8616 14.316L15.1475 15.0632C15.3719 14.9773 15.5795 14.8496 15.7569 14.6847L15.2122 14.0987L14.6676 13.5128C14.6443 13.5344 14.6136 13.5543 14.5757 13.5688L14.8616 14.316ZM15.2122 14.0987L15.7569 14.6847C15.9343 14.5197 16.0783 14.3205 16.1774 14.0968L15.446 13.7728L14.7145 13.4488C14.7056 13.469 14.6907 13.4913 14.6676 13.5128L15.2122 14.0987ZM15.446 13.7728L16.1774 14.0968C16.2766 13.873 16.328 13.6308 16.3268 13.3848L15.5269 13.3884L14.7269 13.3921C14.7269 13.4098 14.7234 13.4289 14.7145 13.4488L15.446 13.7728Z" fill="#FF3A1E" mask="url(#path-1-inside-1_517_2)"/>
</svg>
