<svg width="42" height="42" viewBox="0 0 42 42" fill="none" xmlns="http://www.w3.org/2000/svg">
<path d="M1 21C1 11.5726 1 6.85684 3.92842 3.92842C6.85684 1 11.5705 1 21 1C30.4274 1 35.1432 1 38.0716 3.92842C41 6.85684 41 11.5705 41 21C41 30.4274 41 35.1432 38.0716 38.0716C35.1432 41 30.4295 41 21 41C11.5726 41 6.85684 41 3.92842 38.0716C1 35.1432 1 30.4295 1 21Z" stroke="#FF3A1E" stroke-linecap="round" stroke-linejoin="round"/>
<path d="M32.7943 9.20312H32.7728M30.625 21.0493C30.625 23.6198 29.6046 26.0851 27.7884 27.9028C25.9722 29.7204 23.5089 30.7416 20.9404 30.7416C18.3719 30.7416 15.9086 29.7204 14.0924 27.9028C12.2762 26.0851 11.2559 23.6198 11.2559 21.0493C11.2559 18.4787 12.2762 16.0134 14.0924 14.1958C15.9086 12.3781 18.3719 11.357 20.9404 11.357C23.5089 11.357 25.9722 12.3781 27.7884 14.1958C29.6046 16.0134 30.625 18.4787 30.625 21.0493Z" stroke="#FF3A1E" stroke-linecap="round" stroke-linejoin="round"/>
</svg>
