<svg width="40" height="40" viewBox="0 0 40 40" fill="none" xmlns="http://www.w3.org/2000/svg">
<circle cx="20" cy="20" r="20" fill="#FF3A1E"/>
<path d="M10 20C10 15.2863 10 12.9284 11.4642 11.4642C12.9284 10 15.2853 10 20 10C24.7137 10 27.0716 10 28.5358 11.4642C30 12.9284 30 15.2853 30 20C30 24.7137 30 27.0716 28.5358 28.5358C27.0716 30 24.7147 30 20 30C15.2863 30 12.9284 30 11.4642 28.5358C10 27.0716 10 24.7147 10 20Z" stroke="white" stroke-linecap="round" stroke-linejoin="round"/>
<path d="M25.7984 14.2109H25.7879M24.7374 20.0004C24.7374 21.2567 24.2383 22.4615 23.35 23.3499C22.4616 24.2382 21.2568 24.7373 20.0005 24.7373C18.7442 24.7373 17.5394 24.2382 16.6511 23.3499C15.7627 22.4615 15.2637 21.2567 15.2637 20.0004C15.2637 18.7441 15.7627 17.5393 16.6511 16.651C17.5394 15.7626 18.7442 15.2636 20.0005 15.2636C21.2568 15.2636 22.4616 15.7626 23.35 16.651C24.2383 17.5393 24.7374 18.7441 24.7374 20.0004Z" stroke="white" stroke-linecap="round" stroke-linejoin="round"/>
</svg>
