<svg width="63" height="63" viewBox="0 0 63 63" fill="none" xmlns="http://www.w3.org/2000/svg">
<path d="M3 31.5C3 18.066 3 11.346 7.173 7.173C11.346 3 18.063 3 31.5 3C44.934 3 51.654 3 55.827 7.173C60 11.346 60 18.063 60 31.5C60 44.934 60 51.654 55.827 55.827C51.654 60 44.937 60 31.5 60C18.066 60 11.346 60 7.173 55.827C3 51.654 3 44.937 3 31.5Z" stroke="#FF3A1E" stroke-width="5" stroke-linecap="round" stroke-linejoin="round"/>
<path d="M48.3075 14.6914H48.2769M45.2162 31.5722C45.2162 35.2352 43.7623 38.7482 41.1742 41.3384C38.5861 43.9286 35.0759 45.3837 31.4157 45.3837C27.7556 45.3837 24.2454 43.9286 21.6573 41.3384C19.0692 38.7482 17.6152 35.2352 17.6152 31.5722C17.6152 27.9091 19.0692 24.3961 21.6573 21.8059C24.2454 19.2158 27.7556 17.7606 31.4157 17.7606C35.0759 17.7606 38.5861 19.2158 41.1742 21.8059C43.7623 24.3961 45.2162 27.9091 45.2162 31.5722Z" stroke="#FF3A1E" stroke-width="5" stroke-linecap="round" stroke-linejoin="round"/>
</svg>
